<?xml version="1.0" encoding="UTF-8"?>
<svg version="1.1" xmlns="http://www.w3.org/2000/svg" width="111" height="107">
<path d="M0 0 C7.28240527 5.19804192 11.53091008 12.21754484 13.9375 20.75 C14.4608543 25.04150527 14.76202285 29.41801545 13.625 33.625 C13.50125 34.181875 13.3775 34.73875 13.25 35.3125 C13.91 36.3025 14.57 37.2925 15.25 38.3125 C13.54399107 45.64833838 8.55765359 51.9821077 2.5 56.25 C0.25 57.3125 0.25 57.3125 -1.75 57.3125 C-2.41 52.0325 -3.07 46.7525 -3.75 41.3125 C-10.12431008 43.86222403 -13.62493388 47.21862107 -16.75 53.3125 C-17.1065218 54.63982102 -17.44406428 55.97261485 -17.75 57.3125 C-16.99074219 57.0959375 -16.23148438 56.879375 -15.44921875 56.65625 C-14.45535156 56.3778125 -13.46148437 56.099375 -12.4375 55.8125 C-11.45136719 55.5340625 -10.46523437 55.255625 -9.44921875 54.96875 C-6.75 54.3125 -6.75 54.3125 -3.75 54.3125 C-3.255 56.7875 -3.255 56.7875 -2.75 59.3125 C-3.74 59.6425 -4.73 59.9725 -5.75 60.3125 C-5.75 59.6525 -5.75 58.9925 -5.75 58.3125 C-6.41 58.3125 -7.07 58.3125 -7.75 58.3125 C-7.75 58.9725 -7.75 59.6325 -7.75 60.3125 C-9.5753125 60.5290625 -9.5753125 60.5290625 -11.4375 60.75 C-13.82993081 61.0406298 -16.08609116 61.39066074 -18.4375 61.9375 C-22.67576418 62.62478608 -25.21965215 61.66606523 -28.75 59.3125 C-30.7396995 58.92236284 -32.74019869 58.58047351 -34.75 58.3125 C-34.75 56.9925 -34.75 55.6725 -34.75 54.3125 C-32.44 54.3125 -30.13 54.3125 -27.75 54.3125 C-27.75 54.9725 -27.75 55.6325 -27.75 56.3125 C-25.44 56.3125 -23.13 56.3125 -20.75 56.3125 C-22.06926009 50.44912181 -25.32251847 46.25198256 -29.75 42.3125 C-31.4 41.6525 -33.05 40.9925 -34.75 40.3125 C-35.08 45.9225 -35.41 51.5325 -35.75 57.3125 C-42.69362361 54.9979588 -46.47188466 52.34095617 -50.08203125 45.95703125 C-51.65045345 42.55970684 -52.75 40.08812194 -52.75 36.3125 C-51.76 35.8175 -51.76 35.8175 -50.75 35.3125 C-51.245 33.8275 -51.245 33.8275 -51.75 32.3125 C-52.80807551 23.01531188 -50.32261433 14.69236775 -45.0625 7 C-33.55746052 -7.07132648 -15.11650147 -9.32395973 0 0 Z M-36.75 2.3125 C-37.08 2.9725 -37.41 3.6325 -37.75 4.3125 C-35.99871182 4.02867054 -34.24899997 3.73510471 -32.5 3.4375 C-31.52546875 3.27507813 -30.5509375 3.11265625 -29.546875 2.9453125 C-26.97735883 2.36394152 -25.02928944 1.60409735 -22.75 0.3125 C-22.75 -0.0175 -22.75 -0.3475 -22.75 -0.6875 C-27.68185362 -1.16477616 -32.28450707 0.30118294 -36.75 2.3125 Z M-14.75 -0.6875 C-12.15019136 2.64207948 -9.63935445 2.93011712 -5.5625 3.5 C-3.93248047 3.73783203 -3.93248047 3.73783203 -2.26953125 3.98046875 C-1.02236328 4.14482422 -1.02236328 4.14482422 0.25 4.3125 C-2.72581672 1.02106635 -5.41286075 0.28461742 -9.75 -0.6875 C-12.54244045 -0.85678543 -12.54244045 -0.85678543 -14.75 -0.6875 Z M-35.75 6.0625 C-36.78125 6.38734375 -37.8125 6.7121875 -38.875 7.046875 C-41.91172586 8.38369454 -43.58313854 9.83311044 -45.75 12.3125 C-45.42 12.9725 -45.09 13.6325 -44.75 14.3125 C-44.04875 13.97476562 -43.3475 13.63703125 -42.625 13.2890625 C-37.03326785 10.66034059 -31.80182031 8.56853818 -25.75 7.3125 C-25.75 6.3225 -25.75 5.3325 -25.75 4.3125 C-29.63115558 4.3125 -32.09855561 4.87578057 -35.75 6.0625 Z M-12.75 4.3125 C-12.42 5.3025 -12.09 6.2925 -11.75 7.3125 C-8.93692751 8.5014267 -8.93692751 8.5014267 -5.5625 9.375 C-3.87060547 9.85646484 -3.87060547 9.85646484 -2.14453125 10.34765625 C-1.02433594 10.66605469 0.09585938 10.98445313 1.25 11.3125 C3.25362535 11.96819039 5.25489675 12.63131907 7.25 13.3125 C7.27424142 11.37221956 7.27424142 11.37221956 6.25 9.3125 C3.19937984 7.71024795 3.19937984 7.71024795 -0.5 6.5625 C-1.73234375 6.13453125 -2.9646875 5.7065625 -4.234375 5.265625 C-7.30180955 4.43400941 -9.60823599 4.09665362 -12.75 4.3125 Z M-47.75 18.3125 C-48.45386534 20.3955572 -48.45386534 20.3955572 -48.75 22.3125 C-48.06035156 21.84199219 -47.37070312 21.37148438 -46.66015625 20.88671875 C-38.5533988 15.51557493 -31.41014211 12.34017469 -21.75 11.3125 C-22.08 10.6525 -22.41 9.9925 -22.75 9.3125 C-31.97207519 8.94252076 -40.85958595 12.18768751 -47.75 18.3125 Z M-14.75 9.3125 C-15.08 9.9725 -15.41 10.6325 -15.75 11.3125 C-14.73292969 11.44205078 -14.73292969 11.44205078 -13.6953125 11.57421875 C-4.60890645 12.94598919 2.53055774 16.4235199 10.25 21.3125 C10.24101828 19.41637764 10.24101828 19.41637764 9.25 17.3125 C7.09023461 15.86164231 5.13800067 14.73573654 2.8125 13.625 C2.18520996 13.3168335 1.55791992 13.00866699 0.91162109 12.69116211 C-4.23604126 10.28791368 -9.03666301 9.2203494 -14.75 9.3125 Z M-40.58203125 18.94921875 C-40.96746094 19.39910156 -41.35289063 19.84898438 -41.75 20.3125 C-37.26280591 20.50730334 -33.75274341 19.92648554 -29.5 18.5 C-28.46359375 18.16355469 -27.4271875 17.82710937 -26.359375 17.48046875 C-23.46581306 16.46344485 -23.46581306 16.46344485 -21.75 13.3125 C-28.02903038 12.6336859 -35.81208324 14.68779398 -40.58203125 18.94921875 Z M-15.75 13.3125 C-13.34611977 16.91832034 -12.04010511 17.18847334 -8 18.5 C-6.97390625 18.84417969 -5.9478125 19.18835938 -4.890625 19.54296875 C-1.71726257 20.32052149 0.99716365 20.45371595 4.25 20.3125 C1.71635087 17.26338432 -0.89970635 16.33734619 -4.625 15.125 C-5.65367188 14.78082031 -6.68234375 14.43664062 -7.7421875 14.08203125 C-10.56585785 13.35961169 -12.85472261 13.15758663 -15.75 13.3125 Z M-20.75 15.3125 C-22.73 17.6225 -24.71 19.9325 -26.75 22.3125 C-23.5586432 25.5038568 -22.14145898 26.55243979 -17.75 27.3125 C-15.11085341 26.26850024 -13.12212232 24.92554318 -10.75 23.3125 C-13.69622488 18.22934562 -13.69622488 18.22934562 -18.5625 15.375 C-19.284375 15.354375 -20.00625 15.33375 -20.75 15.3125 Z M-10.75 19.3125 C-9.76 20.3025 -8.77 21.2925 -7.75 22.3125 C-6.76 21.6525 -5.77 20.9925 -4.75 20.3125 C-7.72 19.8175 -7.72 19.8175 -10.75 19.3125 Z M-48.75 24.3125 C-49.16870553 26.98178121 -49.16870553 26.98178121 -48.75 29.3125 C-44.48952281 26.28744614 -44.48952281 26.28744614 -41.875 22 C-41.83375 21.443125 -41.7925 20.88625 -41.75 20.3125 C-45.02329565 20.3125 -46.48016238 22.10239495 -48.75 24.3125 Z M-32.75 21.3125 C-31.43 21.6425 -30.11 21.9725 -28.75 22.3125 C-28.42 21.3225 -28.09 20.3325 -27.75 19.3125 C-30.07357511 19.12759993 -30.07357511 19.12759993 -32.75 21.3125 Z M4.25 20.3125 C4.42625835 22.69198772 4.94719773 24.01475849 6.65234375 25.69140625 C8.15649092 26.93365486 9.70129851 28.12626056 11.25 29.3125 C10.77354792 25.02443127 9.59097516 23.04602513 6.25 20.3125 C5.59 20.3125 4.93 20.3125 4.25 20.3125 Z M-39.75 22.3125 C-40.6223412 25.30730917 -40.85829766 27.94825911 -40.8125 31.0625 C-40.80347656 31.86171875 -40.79445313 32.6609375 -40.78515625 33.484375 C-40.77355469 34.08765625 -40.76195312 34.6909375 -40.75 35.3125 C-38.275 35.8075 -38.275 35.8075 -35.75 36.3125 C-34.1 32.3525 -32.45 28.3925 -30.75 24.3125 C-36.1702491 22.15438612 -36.1702491 22.15438612 -39.75 22.3125 Z M-6.75 24.3125 C-5.1 28.2725 -3.45 32.2325 -1.75 36.3125 C-0.1 35.9825 1.55 35.6525 3.25 35.3125 C3.32654536 30.79632401 3.35228696 26.72164783 2.25 22.3125 C-1.3297509 22.15438612 -1.3297509 22.15438612 -6.75 24.3125 Z M-28.75 25.3125 C-30.4 28.9425 -32.05 32.5725 -33.75 36.3125 C-32.76 37.3025 -31.77 38.2925 -30.75 39.3125 C-27.42472842 38.20407614 -27.03880542 37.66646679 -25.1875 34.875 C-23.78410104 32.78083146 -22.54441988 31.10691988 -20.75 29.3125 C-24.41980204 26.40078211 -24.41980204 26.40078211 -28.75 25.3125 Z M-16.75 29.3125 C-15.81862408 30.60858947 -14.8796434 31.89921632 -13.9375 33.1875 C-13.41542969 33.90679687 -12.89335938 34.62609375 -12.35546875 35.3671875 C-10.71727223 37.54278655 -10.71727223 37.54278655 -7.75 39.3125 C-6.76 38.6525 -5.77 37.9925 -4.75 37.3125 C-5.29339792 32.74795749 -6.54463821 29.3396824 -8.75 25.3125 C-12.03158484 25.3125 -14.12881108 27.48906423 -16.75 29.3125 Z M5.25 27.3125 C6.51946514 32.13692184 6.51946514 32.13692184 10.25 35.3125 C10.58 34.3225 10.91 33.3325 11.25 32.3125 C9.27 30.6625 7.29 29.0125 5.25 27.3125 Z M-44.75 28.3125 C-46.07 29.9625 -47.39 31.6125 -48.75 33.3125 C-48.09 33.9725 -47.43 34.6325 -46.75 35.3125 C-45.10444301 34.08440909 -45.10444301 34.08440909 -43.75 32.3125 C-43.97757731 30.14950789 -43.97757731 30.14950789 -44.75 28.3125 Z M-19.75 31.3125 C-22.06 33.9525 -24.37 36.5925 -26.75 39.3125 C-25.33822596 42.13604808 -24.03638569 44.51363262 -22.25 47.0625 C-21.8271875 47.67609375 -21.404375 48.2896875 -20.96875 48.921875 C-20.5665625 49.38078125 -20.164375 49.8396875 -19.75 50.3125 C-19.09 50.3125 -18.43 50.3125 -17.75 50.3125 C-16.36558 48.34751678 -15.03796166 46.34201535 -13.75 44.3125 C-12.75914781 42.97235459 -11.76102639 41.63749185 -10.75 40.3125 C-11.67838287 38.99353535 -12.61805732 37.68251311 -13.5625 36.375 C-14.08457031 35.64410156 -14.60664062 34.91320313 -15.14453125 34.16015625 C-16.70867127 32.04366774 -16.70867127 32.04366774 -19.75 31.3125 Z M-49.75 38.3125 C-48.5042451 44.41669901 -46.05284347 47.86081603 -41.75 52.3125 C-40.53934835 48.68054504 -41.12215185 47.24718371 -42.1875 43.625 C-42.61869141 42.13419922 -42.61869141 42.13419922 -43.05859375 40.61328125 C-43.28675781 39.85402344 -43.51492187 39.09476563 -43.75 38.3125 C-45.73 38.3125 -47.71 38.3125 -49.75 38.3125 Z M-40.75 38.3125 C-40.63541307 39.75086751 -40.50790884 41.18820966 -40.375 42.625 C-40.30539063 43.42550781 -40.23578125 44.22601563 -40.1640625 45.05078125 C-39.85435574 47.58474441 -39.85435574 47.58474441 -37.75 50.3125 C-37.42 46.6825 -37.09 43.0525 -36.75 39.3125 C-38.07 38.9825 -39.39 38.6525 -40.75 38.3125 Z M-0.75 38.3125 C-0.42 42.2725 -0.09 46.2325 0.25 50.3125 C1.90554702 47.00140596 2.5293272 45.51922799 2.875 42.0625 C2.99875 40.825 3.1225 39.5875 3.25 38.3125 C1.93 38.3125 0.61 38.3125 -0.75 38.3125 Z M5.25 38.3125 C5.11722656 39.07175781 4.98445313 39.83101562 4.84765625 40.61328125 C4.67105469 41.60714844 4.49445313 42.60101563 4.3125 43.625 C4.13847656 44.61113281 3.96445313 45.59726562 3.78515625 46.61328125 C3.25 49.3125 3.25 49.3125 2.25 52.3125 C5.60066172 50.926512 7.08371851 49.5368823 8.9375 46.4375 C9.35386719 45.75945313 9.77023438 45.08140625 10.19921875 44.3828125 C11.22769469 42.35644726 11.79720627 40.53168685 12.25 38.3125 C9.94 38.3125 7.63 38.3125 5.25 38.3125 Z " fill="#7C1135" transform="translate(74.75,14.6875)"/>
<path d="M0 0 C7.28240527 5.19804192 11.53091008 12.21754484 13.9375 20.75 C14.6208253 26.3532675 14.8358953 31.1407094 12.25 36.3125 C11.59 36.3125 10.93 36.3125 10.25 36.3125 C10.188125 35.590625 10.12625 34.86875 10.0625 34.125 C9.00776574 30.47399678 6.96850074 28.89159045 4.25 26.3125 C4.25 25.6525 4.25 24.9925 4.25 24.3125 C6.71800047 25.46423355 8.29783565 26.36033565 10.25 28.3125 C9.68951652 24.84497555 8.7182274 23.43114945 5.9375 21.3125 C-2.70061603 15.20864342 -13.67066883 12.46232628 -24.1328125 13.71875 C-32.06974906 15.15871257 -38.17741866 17.67682868 -44.75 22.3125 C-45.74 22.9725 -46.73 23.6325 -47.75 24.3125 C-47.75 25.6325 -47.75 26.9525 -47.75 28.3125 C-46.1 26.9925 -44.45 25.6725 -42.75 24.3125 C-43.18639406 27.2581599 -43.89845127 28.49693946 -45.8125 30.875 C-48.06112206 33.18495668 -48.06112206 33.18495668 -47.75 36.3125 C-48.74 35.9825 -49.73 35.6525 -50.75 35.3125 C-53.52933745 26.97448766 -51.46064942 19.02279023 -47.75 11.3125 C-43.18327049 3.27561129 -36.4162553 -1.67973135 -27.6875 -4.5625 C-17.70884125 -7.14557345 -8.79866939 -5.42707843 0 0 Z M-36.75 2.3125 C-37.08 2.9725 -37.41 3.6325 -37.75 4.3125 C-35.99871182 4.02867054 -34.24899997 3.73510471 -32.5 3.4375 C-31.52546875 3.27507813 -30.5509375 3.11265625 -29.546875 2.9453125 C-26.97735883 2.36394152 -25.02928944 1.60409735 -22.75 0.3125 C-22.75 -0.0175 -22.75 -0.3475 -22.75 -0.6875 C-27.68185362 -1.16477616 -32.28450707 0.30118294 -36.75 2.3125 Z M-14.75 -0.6875 C-12.15019136 2.64207948 -9.63935445 2.93011712 -5.5625 3.5 C-3.93248047 3.73783203 -3.93248047 3.73783203 -2.26953125 3.98046875 C-1.02236328 4.14482422 -1.02236328 4.14482422 0.25 4.3125 C-2.72581672 1.02106635 -5.41286075 0.28461742 -9.75 -0.6875 C-12.54244045 -0.85678543 -12.54244045 -0.85678543 -14.75 -0.6875 Z M-35.75 6.0625 C-36.78125 6.38734375 -37.8125 6.7121875 -38.875 7.046875 C-41.91172586 8.38369454 -43.58313854 9.83311044 -45.75 12.3125 C-45.42 12.9725 -45.09 13.6325 -44.75 14.3125 C-44.04875 13.97476562 -43.3475 13.63703125 -42.625 13.2890625 C-37.03326785 10.66034059 -31.80182031 8.56853818 -25.75 7.3125 C-25.75 6.3225 -25.75 5.3325 -25.75 4.3125 C-29.63115558 4.3125 -32.09855561 4.87578057 -35.75 6.0625 Z M-12.75 4.3125 C-12.42 5.3025 -12.09 6.2925 -11.75 7.3125 C-8.93692751 8.5014267 -8.93692751 8.5014267 -5.5625 9.375 C-3.87060547 9.85646484 -3.87060547 9.85646484 -2.14453125 10.34765625 C-1.02433594 10.66605469 0.09585938 10.98445313 1.25 11.3125 C3.25362535 11.96819039 5.25489675 12.63131907 7.25 13.3125 C7.27424142 11.37221956 7.27424142 11.37221956 6.25 9.3125 C3.19937984 7.71024795 3.19937984 7.71024795 -0.5 6.5625 C-1.73234375 6.13453125 -2.9646875 5.7065625 -4.234375 5.265625 C-7.30180955 4.43400941 -9.60823599 4.09665362 -12.75 4.3125 Z M-47.75 18.3125 C-48.45386534 20.3955572 -48.45386534 20.3955572 -48.75 22.3125 C-48.06035156 21.84199219 -47.37070312 21.37148438 -46.66015625 20.88671875 C-38.5533988 15.51557493 -31.41014211 12.34017469 -21.75 11.3125 C-22.08 10.6525 -22.41 9.9925 -22.75 9.3125 C-31.97207519 8.94252076 -40.85958595 12.18768751 -47.75 18.3125 Z M-14.75 9.3125 C-15.08 9.9725 -15.41 10.6325 -15.75 11.3125 C-14.73292969 11.44205078 -14.73292969 11.44205078 -13.6953125 11.57421875 C-4.60890645 12.94598919 2.53055774 16.4235199 10.25 21.3125 C10.24101828 19.41637764 10.24101828 19.41637764 9.25 17.3125 C7.09023461 15.86164231 5.13800067 14.73573654 2.8125 13.625 C2.18520996 13.3168335 1.55791992 13.00866699 0.91162109 12.69116211 C-4.23604126 10.28791368 -9.03666301 9.2203494 -14.75 9.3125 Z " fill="#C69147" transform="translate(74.75,14.6875)"/>
<path d="M0 0 C3.29714793 0.32971479 4.6226839 0.6226839 7 3 C8.89274189 3.75086317 10.8146742 4.42942701 12.75 5.0625 C13.77609375 5.40410156 14.8021875 5.74570312 15.859375 6.09765625 C18.90075349 6.97148515 21.87112175 7.5456569 25 8 C25.18175781 8.83144531 25.36351562 9.66289063 25.55078125 10.51953125 C25.80214844 11.60621094 26.05351563 12.69289063 26.3125 13.8125 C26.55613281 14.89144531 26.79976562 15.97039063 27.05078125 17.08203125 C27.99636726 19.9888327 28.60756907 21.18175249 31 23 C33.59915538 24.19027984 33.59915538 24.19027984 36 25 C33.98538488 33.28870221 30.1724575 39.03291911 23.1875 44 C21 45 21 45 19 45 C18.89042969 43.86820313 18.78085938 42.73640625 18.66796875 41.5703125 C18.50852939 40.08846436 18.34833382 38.60669744 18.1875 37.125 C18.11724609 36.37863281 18.04699219 35.63226563 17.97460938 34.86328125 C17.75289777 32.89448223 17.38420661 30.94363342 17 29 C16.01 28.34 15.02 27.68 14 27 C14.226875 26.360625 14.45375 25.72125 14.6875 25.0625 C15.14032683 20.62479709 13.58292318 17.10486859 12 13 C10.35 13.33 8.7 13.66 7 14 C7.66 12.68 8.32 11.36 9 10 C6.37432168 6.17972549 6.37432168 6.17972549 2.375 4.0625 C1.199375 4.0315625 1.199375 4.0315625 0 4 C-0.66 4.66 -1.32 5.32 -2 6 C-4.2421875 6.88671875 -4.2421875 6.88671875 -6.875 7.6875 C-7.73867188 7.95949219 -8.60234375 8.23148438 -9.4921875 8.51171875 C-12.08694932 9.01692938 -13.530785 8.85561171 -16 8 C-7.59577465 4.22816901 -7.59577465 4.22816901 -4.0625 2.875 C-1.83007092 2.07993037 -1.83007092 2.07993037 0 0 Z M10 7 C10.99 7.99 11.98 8.98 13 10 C13.99 9.34 14.98 8.68 16 8 C13.03 7.505 13.03 7.505 10 7 Z M14 12 C15.65 15.96 17.3 19.92 19 24 C20.65 23.67 22.3 23.34 24 23 C24.07654536 18.48382401 24.10228696 14.40914783 23 10 C19.4202491 9.84188612 19.4202491 9.84188612 14 12 Z M20 26 C20.33 29.96 20.66 33.92 21 38 C22.65554702 34.68890596 23.2793272 33.20672799 23.625 29.75 C23.74875 28.5125 23.8725 27.275 24 26 C22.68 26 21.36 26 20 26 Z M26 26 C25.86722656 26.75925781 25.73445313 27.51851562 25.59765625 28.30078125 C25.42105469 29.29464844 25.24445313 30.28851563 25.0625 31.3125 C24.88847656 32.29863281 24.71445313 33.28476562 24.53515625 34.30078125 C24 37 24 37 23 40 C26.35066172 38.614012 27.83371851 37.2243823 29.6875 34.125 C30.10386719 33.44695313 30.52023438 32.76890625 30.94921875 32.0703125 C31.97769469 30.04394726 32.54720627 28.21918685 33 26 C30.69 26 28.38 26 26 26 Z " fill="#801734" transform="translate(54,27)"/>
<path d="M0 0 C2.39763185 2.39763185 2.34280586 3.33273498 2.625 6.625 C2.69976562 7.44226562 2.77453125 8.25953125 2.8515625 9.1015625 C2.92503906 10.04128906 2.92503906 10.04128906 3 11 C5.31 11 7.62 11 10 11 C10 11.66 10 12.32 10 13 C11.72476911 13.95502158 11.72476911 13.95502158 14 14 C16.56249975 11.68767578 16.56249975 11.68767578 19 9 C20.32 8.34 21.64 7.68 23 7 C21.02 9.64 19.04 12.28 17 15 C18.44688546 17.89377093 19.75081864 20.18533078 21.625 22.75 C22.07101563 23.36359375 22.51703125 23.9771875 22.9765625 24.609375 C23.31429687 25.06828125 23.65203125 25.5271875 24 26 C23.01 26.66 22.02 27.32 21 28 C20.46375 27.113125 19.9275 26.22625 19.375 25.3125 C16.49188942 20.98270403 13.01094591 17.6703153 8 16 C7.67 21.61 7.34 27.22 7 33 C0.05637639 30.6854588 -3.72188466 28.02845617 -7.33203125 21.64453125 C-8.90045345 18.24720684 -10 15.77562194 -10 12 C-9.05125 11.71125 -8.1025 11.4225 -7.125 11.125 C-3.94788422 10.23174891 -3.94788422 10.23174891 -2 8 C-1.32707499 6.03309626 -1.32707499 6.03309626 -0.875 3.875 C-0.58625 2.59625 -0.2975 1.3175 0 0 Z M-7 14 C-5.7542451 20.10419901 -3.30284347 23.54831603 1 28 C2.21065165 24.36804504 1.62784815 22.93468371 0.5625 19.3125 C0.13130859 17.82169922 0.13130859 17.82169922 -0.30859375 16.30078125 C-0.53675781 15.54152344 -0.76492187 14.78226563 -1 14 C-2.98 14 -4.96 14 -7 14 Z M2 14 C2.11458693 15.43836751 2.24209116 16.87570966 2.375 18.3125 C2.44460937 19.11300781 2.51421875 19.91351563 2.5859375 20.73828125 C2.89564426 23.27224441 2.89564426 23.27224441 5 26 C5.33 22.37 5.66 18.74 6 15 C4.68 14.67 3.36 14.34 2 14 Z " fill="#7B1237" transform="translate(32,39)"/>
<path d="M0 0 C5.02137798 1.0042756 5.86243419 1.39760962 9 5 C9.763125 4.175 10.52625 3.35 11.3125 2.5 C14 0 14 0 17 0 C17 6.6 17 13.2 17 20 C15.35 19.67 13.7 19.34 12 19 C11.67 16.36 11.34 13.72 11 11 C9.68 11.33 8.36 11.66 7 12 C6.67 11.34 6.34 10.68 6 10 C5.67 13.3 5.34 16.6 5 20 C3.35 19.67 1.7 19.34 0 19 C0 12.73 0 6.46 0 0 Z " fill="#7E1237" transform="translate(26,81)"/>
<path d="M0 0 C4.12615036 1.03153759 5.8459821 2.28404014 9 5 C9.5775 4.175 10.155 3.35 10.75 2.5 C11.4925 1.675 12.235 0.85 13 0 C14.32 0 15.64 0 17 0 C17 6.27 17 12.54 17 19 C15.35 19.33 13.7 19.66 12 20 C11.67 16.7 11.34 13.4 11 10 C9.02 10.99 9.02 10.99 7 12 C6.67 11.67 6.34 11.34 6 11 C5.67 13.64 5.34 16.28 5 19 C3.35 19.33 1.7 19.66 0 20 C0 13.4 0 6.8 0 0 Z " fill="#781133" transform="translate(85,81)"/>
<path d="M0 0 C0.99 0.66 1.98 1.32 3 2 C2.34 3.32 1.68 4.64 1 6 C-0.65 6 -2.3 6 -4 6 C-2.865625 6.53625 -1.73125 7.0725 -0.5625 7.625 C2.54629332 9.36742851 2.89118154 9.62276269 3.9375 13.25 C3.958125 14.1575 3.97875 15.065 4 16 C1.9375 18.0625 1.9375 18.0625 -1 20 C-4.38501003 19.82788085 -6.96282462 19.51858769 -10 18 C-10 17.01 -10 16.02 -10 15 C-6.67465243 13.89155081 -4.37817425 14.15545644 -1 15 C-2.84179144 13.06127217 -4.46623417 11.70330553 -6.75 10.25 C-7.4925 9.5075 -8.235 8.765 -9 8 C-8.9375 4.3125 -8.9375 4.3125 -8 1 C-5.22899606 -0.38550197 -3.0665294 -0.1877467 0 0 Z " fill="#7D1236" transform="translate(20,81)"/>
<path d="M0 0 C1.65 0 3.3 0 5 0 C5.99 2.64 6.98 5.28 8 8 C9.77706209 5.33440687 10.87548273 2.9719385 12 0 C13.32 0 14.64 0 16 0 C15.57787914 4.64332948 14.54606812 8.91037223 13.1875 13.375 C12.87167969 14.41398437 12.55585937 15.45296875 12.23046875 16.5234375 C11 19 11 19 8.86328125 19.8515625 C7.94095703 19.92503906 7.94095703 19.92503906 7 20 C0 4.64974619 0 4.64974619 0 0 Z " fill="#7B1236" transform="translate(45,81)"/>
<path d="M0 0 C3.0625 0.1875 3.0625 0.1875 5.0625 2.1875 C8.16176819 1.86551034 8.16176819 1.86551034 11.0625 1.1875 C10.7325 1.8475 10.4025 2.5075 10.0625 3.1875 C8.7425 3.1875 7.4225 3.1875 6.0625 3.1875 C6.9269642 5.49503285 6.9269642 5.49503285 9.79296875 6.15234375 C11.50419922 6.63380859 11.50419922 6.63380859 13.25 7.125 C17.82011678 8.41507868 21.86721937 9.95298786 26.0625 12.1875 C25.7325 10.5375 25.4025 8.8875 25.0625 7.1875 C28.0625 8.1875 28.0625 8.1875 29.8125 11.625 C30.225 12.800625 30.6375 13.97625 31.0625 15.1875 C30.7325 15.8475 30.4025 16.5075 30.0625 17.1875 C26.56337195 15.83684914 23.23494516 14.28760211 19.875 12.625 C15.26693335 10.50392491 11.39772374 9.64431074 6.36328125 9.36328125 C3.04319084 9.10962409 -1.5086457 8.6163543 -3.9375 6.1875 C-4.0625 3.6875 -4.0625 3.6875 -3.9375 1.1875 C-2.9375 0.1875 -2.9375 0.1875 0 0 Z " fill="#C48E47" transform="translate(55.9375,15.8125)"/>
<path d="M0 0 C2.31 0 4.62 0 7 0 C7 0.66 7 1.32 7 2 C15.29683005 2.19676277 22.95075394 2.25943749 31 0 C31.33 1.65 31.66 3.3 32 5 C31.01 5.33 30.02 5.66 29 6 C29 5.34 29 4.68 29 4 C28.34 4 27.68 4 27 4 C27 4.66 27 5.32 27 6 C25.1746875 6.2165625 25.1746875 6.2165625 23.3125 6.4375 C20.92006919 6.7281298 18.66390884 7.07816074 16.3125 7.625 C12.07423582 8.31228608 9.53034785 7.35356523 6 5 C4.0103005 4.60986284 2.00980131 4.26797351 0 4 C0 2.68 0 1.36 0 0 Z " fill="#C69247" transform="translate(40,69)"/>
<path d="M0 0 C4.62 0 9.24 0 14 0 C13.67 1.65 13.34 3.3 13 5 C11.68 5 10.36 5 9 5 C9 9.95 9 14.9 9 20 C7.68 20 6.36 20 5 20 C5 15.05 5 10.1 5 5 C3.35 4.67 1.7 4.34 0 4 C0 2.68 0 1.36 0 0 Z " fill="#7D1237" transform="translate(69,81)"/>
<path d="M0 0 C1.65 0 3.3 0 5 0 C5 6.6 5 13.2 5 20 C3.35 20 1.7 20 0 20 C0 13.4 0 6.8 0 0 Z " fill="#7B1234" transform="translate(62,81)"/>
<path d="M0 0 C3.34192692 0.24453124 4.60543557 0.60543557 7 3 C6.67 3.99 6.34 4.98 6 6 C5.01 5.34 4.02 4.68 3 4 C0.23185356 4.39941191 -2.23170284 5.44875879 -4.8125 6.5 C-8.56034797 7.94147999 -12.01333671 8.58472257 -16 9 C-13.00343455 5.45143565 -9.74142407 4.93535602 -5.375 3.84375 C-2.83125028 2.94004944 -1.83830867 1.90224984 0 0 Z " fill="#7C1435" transform="translate(54,27)"/>
<path d="M0 0 C3 0.125 3 0.125 4 1.125 C4.04063832 2.79117115 4.042721 4.45888095 4 6.125 C1.6875 7.25 1.6875 7.25 -1 8.125 C-1.99 7.465 -2.98 6.805 -4 6.125 C-4.25 3.5625 -4.25 3.5625 -4 1.125 C-3 0.125 -3 0.125 0 0 Z " fill="#8C2E3A" transform="translate(56,15.875)"/>
<path d="M0 0 C1.65 0 3.3 0 5 0 C5.66 3.63 6.32 7.26 7 11 C6.01 11.33 5.02 11.66 4 12 C3.67 8.7 3.34 5.4 3 2 C2.01 2 1.02 2 0 2 C0 1.34 0 0.68 0 0 Z " fill="#770F32" transform="translate(74,35)"/>
<path d="M0 0 C2 2 2 2 2.375 4.875 C2 8 2 8 0.125 10.375 C-2 12 -2 12 -4 12 C-3.71125 11.505 -3.4225 11.01 -3.125 10.5 C-1.58711584 7.08247965 -0.85152195 3.6493798 0 0 Z " fill="#96433B" transform="translate(32,39)"/>
<path d="M0 0 C0 0.66 0 1.32 0 2 C-1.24420647 2.5345256 -2.49570936 3.05208611 -3.75 3.5625 C-4.44609375 3.85253906 -5.1421875 4.14257812 -5.859375 4.44140625 C-8.30012784 5.07831803 -9.6403655 4.80248831 -12 4 C-10.56570999 3.32645501 -9.12742943 2.66140299 -7.6875 2 C-6.88699219 1.62875 -6.08648437 1.2575 -5.26171875 0.875 C-3 0 -3 0 0 0 Z " fill="#C59147" transform="translate(50,31)"/>
<path d="M0 0 C1.45903258 0.30921884 2.91720722 0.62248799 4.375 0.9375 C5.18710938 1.11152344 5.99921875 1.28554688 6.8359375 1.46484375 C9 2 9 2 11 3 C11 3.66 11 4.32 11 5 C9.54096742 4.69078116 8.08279278 4.37751201 6.625 4.0625 C5.81289062 3.88847656 5.00078125 3.71445312 4.1640625 3.53515625 C2 3 2 3 0 2 C0 1.34 0 0.68 0 0 Z " fill="#C79246" transform="translate(62,31)"/>
<path d="M0 0 C0.33 0 0.66 0 1 0 C1.12375 0.94875 1.2475 1.8975 1.375 2.875 C1.71687177 6.08667191 1.71687177 6.08667191 4 8 C3.01 8.33 2.02 8.66 1 9 C-0.5625 7.25 -0.5625 7.25 -2 5 C-1.75203633 2.83031791 -1.55766393 1.55766393 0 0 Z " fill="#C68150" transform="translate(51,16)"/>
<path d="M0 0 C0.99 0.33 1.98 0.66 3 1 C2.67 2.32 2.34 3.64 2 5 C1.01 5 0.02 5 -1 5 C-0.67 3.35 -0.34 1.7 0 0 Z " fill="#C38D47" transform="translate(55,17)"/>
</svg>
